<?xml version="1.0" encoding="UTF-8" standalone="no"?>
<svg
   xmlns:dc="http://purl.org/dc/elements/1.1/"
   xmlns:cc="http://creativecommons.org/ns#"
   xmlns:rdf="http://www.w3.org/1999/02/22-rdf-syntax-ns#"
   xmlns:svg="http://www.w3.org/2000/svg"
   xmlns="http://www.w3.org/2000/svg"
   xmlns:sodipodi="http://sodipodi.sourceforge.net/DTD/sodipodi-0.dtd"
   xmlns:inkscape="http://www.inkscape.org/namespaces/inkscape"
   viewBox="0 0 900 600"
   version="1.1"
   id="svg853"
   sodipodi:docname="Samajwadi Party Flag.svg"
   inkscape:version="1.0beta2 (2b71d25, 2019-12-03)">
  <metadata
     id="metadata859">
    <rdf:RDF>
      <cc:Work
         rdf:about="">
        <dc:format>image/svg+xml</dc:format>
        <dc:type
           rdf:resource="http://purl.org/dc/dcmitype/StillImage" />
        <dc:title />
      </cc:Work>
    </rdf:RDF>
  </metadata>
  <defs
     id="defs857" />
  <sodipodi:namedview
     pagecolor="#ffffff"
     bordercolor="#666666"
     inkscape:document-rotation="0"
     borderopacity="1"
     objecttolerance="10"
     gridtolerance="10"
     guidetolerance="10"
     inkscape:pageopacity="0"
     inkscape:pageshadow="2"
     inkscape:window-width="1131"
     inkscape:window-height="847"
     id="namedview855"
     showgrid="false"
     inkscape:zoom="0.46"
     inkscape:cx="454.22477"
     inkscape:cy="297.57998"
     inkscape:window-x="39"
     inkscape:window-y="25"
     inkscape:window-maximized="0"
     inkscape:current-layer="layer2" />
  <path
     fill="#de0000"
     d="M0 0H900V600H0z"
     id="path833" />
  <g
     inkscape:groupmode="layer"
     id="layer1"
     inkscape:label="Vert">
    <rect
       style="fill:#018b00;fill-opacity:1;fill-rule:evenodd;stroke:none;stroke-width:0.474163;stop-color:#000000"
       id="rect1429"
       width="899.71289"
       height="165.21739"
       x="0.28712055"
       y="434.78262" />
  </g>
  <g
     inkscape:groupmode="layer"
     id="layer2"
     inkscape:label="vélo">
    <path
       id="path28157"
       d="m 653.0905,485.14983 c 1.15709,-0.16646 5.73298,-0.81108 10.16859,-1.43256 8.50579,-1.19172 19.04314,-3.86363 26.64879,-6.75721 12.01467,-4.57104 30.11782,-15.2211 37.85081,-22.26758 7.28979,-6.64264 12.4994,-11.90198 15.65886,-15.80832 1.85233,-2.29023 3.75337,-4.63745 4.22451,-5.21602 4.88882,-6.00342 12.90236,-20.38721 16.31158,-29.27824 0.92429,-2.41048 1.9674,-4.93509 2.31806,-5.61024 0.35063,-0.67519 1.18684,-3.12106 1.8582,-5.4353 0.67135,-2.31424 1.4739,-4.99664 1.78341,-5.9609 1.98027,-6.16934 4.14824,-23.35915 4.15025,-32.90707 0.002,-13.13704 -4.27931,-37.14658 -8.09562,-45.39203 -0.56251,-1.21539 -1.02277,-2.40846 -1.02277,-2.65123 0,-0.81732 -7.77601,-16.85457 -9.37412,-19.33318 -4.49902,-6.9779 -7.31132,-11.01989 -9.20949,-13.23638 -14.36447,-16.77339 -20.081,-21.76501 -38.51589,-33.6318 -1.89824,-1.2219 -3.7128,-2.22165 -4.03239,-2.22165 -0.79411,0 -0.71479,-2.91354 0.11454,-4.2077 0.57563,-0.89826 1.36181,-0.69774 5.38107,1.37231 2.58886,1.33333 6.21777,3.46345 8.0643,4.73366 1.8465,1.27016 3.53352,2.30942 3.74887,2.30942 0.53842,0 12.67555,9.98909 16.12241,13.26904 8.32234,7.91939 14.77154,15.81327 21.81683,26.70409 3.56373,5.50892 12.45552,24.13184 13.89576,29.10327 0.67046,2.31424 1.52468,5.15444 1.89823,6.31155 2.11039,6.53675 4.80018,24.4667 4.81107,32.07036 0.005,3.69994 0.14499,4.05395 1.75896,4.45904 0.96427,0.242 2.54215,0.242 3.50641,0 1.69351,-0.42507 1.75321,-0.63774 1.75321,-6.24731 0,-6.46834 0.53061,-7.49038 3.88863,-7.49038 3.13833,0 4.52964,-1.85474 4.51287,-6.01612 -0.0185,-4.96579 -1.23873,-12.69493 -2.26332,-14.35354 -1.24568,-2.0165 -3.84169,-2.48759 -6.16037,-1.11791 -1.07107,0.63268 -2.26563,1.15034 -2.65454,1.15034 -0.38892,0 -1.81424,-3.23467 -3.16737,-7.18815 -5.49222,-16.04654 -9.63903,-25.20689 -15.47228,-34.17849 -1.63336,-2.51207 -3.55348,-5.51414 -4.26695,-6.67127 -4.02254,-6.5238 -19.34525,-23.06499 -27.58968,-29.78357 -2.05287,-1.67295 -8.65678,-6.29529 -14.67533,-10.27189 -6.28348,-4.15165 -10.51692,-7.36806 -9.94251,-7.55397 0.55017,-0.1781 2.42043,-0.52452 4.15609,-0.76992 4.3355,-0.61296 7.56288,-2.34568 9.98629,-5.36136 4.16911,-5.18802 3.05045,-11.45559 -2.49397,-13.97282 -2.81264,-1.27698 -5.57713,-1.3327 -66.84948,-1.34746 -59.7132,-0.0132 -64.09826,0.0665 -66.69473,1.22887 -1.52857,0.68437 -3.57812,2.17312 -4.55461,3.30831 -2.2772,2.6474 -3.05693,2.0491 -6.16087,-4.72744 -1.28097,-2.79662 -2.59009,-5.18996 -2.90915,-5.31853 -0.31909,-0.12854 -0.58013,-0.58121 -0.58013,-1.00586 0,-0.42461 -0.60144,-2.05509 -1.3365,-3.62328 -0.73503,-1.56817 -2.7863,-5.95373 -4.55832,-9.74569 -4.69056,-10.03729 -4.2513,-13.79894 1.9442,-16.64964 3.3338,-1.53396 5.07726,-2.62664 6.7981,-4.26049 2.2226,-2.11022 7.40468,-4.79804 12.65496,-6.56378 2.85199,-0.95913 5.81657,-2.02348 6.58798,-2.3652 0.7714,-0.3417 3.60048,-1.51138 6.28682,-2.59927 6.49651,-2.63097 11.59946,-7.41147 11.58757,-10.85532 -0.0108,-2.97482 -1.49272,-8.67812 -3.02599,-11.64166 -1.11698,-2.15888 -5.27161,-4.324 -6.65575,-3.46856 -1.2954,0.80059 -31.23887,0.24756 -35.65946,-0.65877 -2.05086,-0.42041 -43.85876,-3.11755 -48.2718,-3.11414 -8.17261,0.005 -13.43325,3.79101 -14.99987,10.79146 -1.23519,5.51944 -0.63117,6.28897 5.71034,7.27488 7.52861,1.17045 17.30078,4.62169 26.19548,9.25148 10.11256,5.26374 19.70795,11.60556 20.27824,13.40247 0.63762,2.00891 -1.39168,4.77009 -4.45374,6.06007 -2.27259,0.9574 -15.06314,1.12721 -108.82536,1.44493 -95.76332,0.3245 -106.33984,0.2518 -107.15954,-0.73579 -0.76218,-0.91835 -0.44216,-2.32585 1.97611,-8.69166 3.26117,-8.58477 5.91634,-16.43831 7.02645,-20.78322 1.26152,-4.93751 3.63086,-10.56697 5.17782,-12.3024 3.54106,-3.9724 11.67543,-6.11959 15.56452,-4.10849 1.14148,0.59029 3.48583,2.4573 5.20968,4.14892 3.55106,3.48465 9.3618,8.26791 10.04397,8.26791 1.3313,0 -0.0511,-2.4136 -4.43161,-7.73758 -4.65479,-5.65726 -5.77551,-7.69068 -4.23877,-7.69068 0.68271,0 7.29599,5.69699 10.31787,8.88829 2.16991,2.2915 3.62567,2.03685 7.04401,-1.23219 3.22479,-3.08402 3.22964,-3.56244 0.0707,-6.98596 -3.83611,-4.15755 -5.50145,-6.4595 -5.47028,-7.56142 0.0419,-1.47925 6.44449,-6.64345 10.54071,-8.50178 4.24431,-1.92555 9.73632,-1.84039 15.87076,0.24596 4.85783,1.65225 7.8495,3.23743 10.05743,5.32906 1.66765,1.57981 13.91746,12.71386 17.31632,15.73905 2.90096,2.58208 5.08938,2.96074 5.08938,0.88058 0,-1.51597 -15.335,-16.74606 -20.06321,-19.92594 -2.35638,-1.58474 -5.98553,-3.60684 -8.06475,-4.49354 -2.07923,-0.88671 -4.56936,-2.01715 -5.53363,-2.51211 -1.69795,-0.87159 -1.66269,-0.90008 1.1184,-0.90427 5.37978,-0.009 14.04253,3.69824 18.86819,8.07271 1.1571,1.04891 5.14967,4.86773 8.87237,8.48624 3.72271,3.6185 7.19969,6.57908 7.72665,6.57908 1.402,0 6.03687,-3.3075 6.90318,-4.92621 0.65025,-1.21501 -0.0868,-2.25654 -5.76808,-8.15011 -7.3624,-7.63766 -16.70156,-15.43816 -21.13304,-17.651341 -5.52548,-2.759562 -11.42965,-3.846646 -18.69152,-3.441554 -9.7971,0.546593 -15.10624,3.020724 -23.92056,11.147405 -3.6631,3.37734 -5.15135,4.08938 -8.50429,4.06887 -2.55865,-0.0159 -3.79925,-0.63084 -8.60021,-4.26458 -6.12308,-4.634444 -16.40494,-9.969195 -21.38917,-11.09779 -4.5266,-1.02497 -16.18099,-0.905911 -23.22307,0.237238 -9.04028,1.467536 -13.2496,4.648369 -15.39958,11.636982 -0.65996,2.14521 -1.74765,4.79596 -3.44373,8.3926 -0.92505,1.96158 0.67856,5.92689 3.0113,7.44633 5.19067,3.38084 19.21396,7.9901 27.71898,9.11082 2.09151,0.2756 3.90069,0.908 4.10257,1.43409 0.19854,0.51759 -0.12033,2.28793 -0.70903,3.93411 -0.58859,1.64616 -2.52776,7.2533 -4.30927,12.46032 -1.78153,5.20705 -3.52994,10.0985 -3.88535,10.86993 -0.35543,0.77141 -1.40246,3.6116 -2.32678,6.31155 -0.9243,2.69994 -2.27863,6.17128 -3.00963,7.7141 -1.16465,2.45799 -1.62278,2.80516 -3.70167,2.80516 -3.43155,0 -4.09594,-1.45896 -2.93947,-6.45482 1.47264,-6.36149 1.66528,-9.04391 0.76963,-10.71746 -0.79381,-1.48322 -0.86679,-1.4939 -1.72513,-0.25311 -0.49294,0.71267 -1.7608,3.81157 -2.81745,6.88652 -3.05947,8.90328 -1.6764,13.73722 4.55166,15.9083 2.77503,0.9674 2.72717,2.75958 -0.2667,9.98315 -2.39631,5.78188 -6.40445,16.05298 -11.93387,30.58135 -2.91762,7.66595 -3.17433,8.07538 -5.19119,8.27943 -1.8793,0.19005 -11.5328,-2.50857 -18.38772,-5.14036 -3.54268,-1.36016 -8.44929,-2.79228 -16.8308,-4.91247 -6.23867,-1.57818 -9.4036,-1.92065 -20.7195,-2.24209 -12.0905,-0.3434 -13.47231,-0.2632 -14.58294,0.84754 -2.53296,2.53296 -0.56718,3.44958 9.7056,4.52557 16.93974,1.77428 34.87104,5.41855 42.38373,8.61378 7.10157,3.02037 14.68554,6.95237 14.96305,7.75776 0.16195,0.47018 -0.002,1.7227 -0.36808,2.78338 -0.66839,1.94545 -2.96179,2.6365 -4.4175,1.33111 -2.08742,-1.87187 -23.98293,-9.48736 -30.67837,-10.67024 -2.39291,-0.42276 -6.87534,-1.20998 -9.96099,-1.74932 -11.88932,-2.0782 -33.84967,-1.13726 -48.38856,2.07329 -12.94662,2.85896 -30.97413,10.66994 -42.42764,18.3831 -6.30437,4.24555 -17.33532,13.49891 -22.18379,18.60897 -15.11053,15.9256 -27.11135,38.01954 -32.11387,59.12273 -2.43015,10.2517 -2.45081,10.38628 -3.1787,20.72267 -1.34811,19.14297 1.45371,40.27342 7.39246,55.75202 2.073,5.40304 8.92184,19.73293 11.17701,23.38577 15.40265,24.94882 38.69492,44.16588 65.02287,53.64647 12.94386,4.66105 18.56111,6.07363 29.98667,7.54086 26.25311,3.37131 52.93728,-1.19408 76.08927,-13.01805 6.63915,-3.39071 10.28487,-5.3987 10.86989,-5.98702 0.19296,-0.19402 1.75771,-1.29847 3.47742,-2.45448 4.46918,-3.00427 10.44059,-7.84173 15.62916,-12.66131 5.8981,-5.47858 14.55503,-15.15117 14.55503,-16.26261 0,-0.48327 0.32137,-0.87868 0.71417,-0.87868 1.22372,0 8.72034,-12.08663 13.2202,-21.31456 2.36444,-4.84878 4.29897,-9.0105 4.29897,-9.24828 0,-0.23776 0.44218,-1.42673 0.98261,-2.6421 2.09092,-4.70225 2.64205,-6.63287 5.33543,-18.69002 1.88889,-8.45594 2.67925,-30.74922 1.45741,-41.10935 -2.57972,-21.87392 -8.96653,-40.00629 -19.95024,-56.6396 -8.95069,-13.55459 -19.90641,-25.06497 -33.58394,-35.28427 -4.26983,-3.19027 -4.92078,-4.79951 -2.73974,-6.7733 1.20973,-1.0948 1.49849,-1.07876 4.50262,0.25021 1.76548,0.78096 3.31394,1.69028 3.44104,2.02069 0.12696,0.3304 2.59784,2.50664 5.49065,4.83604 15.24286,12.27427 27.25827,27.46825 37.00351,46.79245 4.66394,9.24824 9.56565,25.56296 11.79916,39.27187 1.62907,9.9989 1.78726,12.51853 1.45296,23.14235 -0.20621,6.557 -0.88774,14.60424 -1.51426,17.88275 -0.62655,3.27846 -1.40151,7.38097 -1.72217,9.11666 -0.68565,3.7115 -3.13115,11.61986 -6.6028,21.35262 -2.74496,7.6955 -2.5913,8.80255 1.2217,8.80255 1.87146,0 2.42236,-0.43873 3.74236,-2.98045 7.02686,-13.53069 11.99481,-36.83204 12.08267,-56.67185 0.0433,-9.76074 -2.80687,-33.21758 -4.20827,-34.63523 -0.36226,-0.36641 -0.65859,-1.2854 -0.65859,-2.0422 0,-3.98164 -5.13255,-18.24298 -10.25646,-28.49869 -7.14366,-14.2983 -14.74138,-24.85689 -25.98833,-36.11609 -8.01612,-8.02487 -13.20735,-12.56808 -20.03321,-17.53259 -4.36585,-3.17533 -5.43495,-4.31064 -5.43495,-5.77163 0,-1.90177 3.14448,-7.90286 4.14096,-7.90286 0.47131,0 20.63648,17.44031 21.80654,18.85985 0.19295,0.23403 1.9285,1.8183 3.85705,3.52075 1.92851,1.7024 5.56519,5.016 8.08146,7.36349 2.5163,2.34747 6.5872,6.00382 9.04652,8.12517 2.45929,2.1214 5.9783,5.27718 7.82003,7.01284 1.84173,1.73569 5.64627,5.20702 8.45447,7.71413 2.80825,2.50707 6.32995,5.66285 7.82601,7.01283 1.49607,1.34999 3.42893,3.08564 4.2953,3.85707 12.20224,10.865 23.26634,20.92938 24.60455,22.38139 0.38568,0.41852 1.96356,1.835 3.50641,3.14779 1.54281,1.31278 5.64531,4.97635 9.11669,8.14132 3.47134,3.16494 7.52279,6.80279 9.00325,8.08407 3.18583,2.75728 3.1829,3.90234 -0.0299,11.54293 -4.60639,10.9552 -4.48207,19.93311 0.42723,30.85513 2.8051,6.24059 2.93144,6.41915 8.77557,12.40181 6.17601,6.32241 17.47474,11.03859 26.54559,11.08036 2.08898,0.0108 2.77262,0.34381 3.25284,1.59006 0.98402,2.55362 2.16711,11.41816 2.16711,16.23721 0,5.0296 -0.75051,5.93366 -6.12753,7.38156 -3.76417,1.01355 -4.71483,3.91458 -2.94579,8.98925 0.60916,1.74745 1.32974,2.28349 3.9599,2.94577 9.78494,2.46388 16.24823,1.50338 23.9564,-3.56017 l 4.46669,-2.9342 -0.4556,-3.8766 c -0.25048,-2.13213 -0.80027,-4.29189 -1.22151,-4.79941 -0.47759,-0.57549 -2.38319,-0.92866 -5.06297,-0.93838 -6.40777,-0.0238 -8.0178,-1.82036 -9.48267,-10.58451 -1.13299,-6.77875 -1.01098,-9.49576 0.45185,-10.06271 1.11489,-0.43212 11.43664,-1.93 27.72504,-4.02346 3.98801,-0.51256 6.4009,-0.55145 6.8421,-0.1102 0.37484,0.37483 1.65193,3.50389 2.83801,6.95343 2.88134,8.38004 9.4278,21.65623 14.50408,29.41426 9.92892,15.17415 20.61892,25.86372 37.67972,37.67811 13.15731,9.11129 32.4327,16.61147 50.14176,19.5105 8.27218,1.35418 27.18467,2.33604 31.9084,1.65652 z m -10.66712,-12.17407 c -3.77571,-0.36608 -10.8097,-1.01033 -15.63103,-1.43172 -7.79021,-0.68086 -8.93062,-0.94952 -10.24438,-2.41359 -1.25029,-1.39329 -1.39494,-2.11908 -0.9378,-4.70454 0.2973,-1.68139 0.75102,-4.31937 1.0083,-5.8622 0.25737,-1.54281 0.74316,-3.43629 1.07977,-4.2077 0.33661,-0.77141 1.27026,-4.08498 2.07479,-7.36349 0.80455,-3.27848 1.97057,-7.69658 2.59121,-9.81796 0.62064,-2.12139 1.68737,-6.22389 2.37049,-9.11668 1.29244,-5.47283 2.36042,-9.49442 5.25137,-19.77414 0.94338,-3.35451 1.71523,-6.59345 1.71523,-7.19767 0,-0.6042 0.28135,-1.64653 0.62523,-2.31628 0.34391,-0.66977 1.32776,-3.90014 2.18636,-7.17864 3.85893,-14.73482 4.81163,-17.16133 6.95839,-17.72272 2.26321,-0.59185 3.13168,1.34876 3.65333,8.16338 0.2696,3.52196 0.82269,10.34829 1.2291,15.16961 0.40641,4.82132 1.05035,12.71074 1.43093,17.53208 0.38061,4.82132 1.02771,11.44844 1.43799,14.72694 1.31584,10.51457 3.47818,41.92321 2.98124,43.30425 -0.37846,1.05189 -0.9748,1.06474 -9.78052,0.21098 z m -410.86121,-0.28211 c -0.57959,-1.51039 2.13113,-100.02572 2.86353,-104.06952 0.42674,-2.35607 1.27938,-2.9097 2.19631,-1.42607 0.72058,1.16594 5.39306,15.33519 17.75668,53.84698 2.41457,7.52127 4.95135,15.41071 5.63728,17.53208 0.68591,2.12141 2.87399,8.90632 4.86239,15.07762 1.9884,6.17128 3.88904,11.72213 4.22367,12.3352 0.3346,0.61306 0.39403,1.46152 0.132,1.88547 -0.59369,0.96063 -9.84639,2.65192 -23.58917,4.31186 -13.46145,1.626 -13.65044,1.63278 -14.08269,0.50638 z m -13.618,-0.56254 c -2.12138,-0.40019 -6.53947,-1.29894 -9.81799,-1.99719 -3.27847,-0.69827 -8.16993,-1.66711 -10.86986,-2.15303 -6.84349,-1.23157 -7.08003,-1.54818 -5.253,-7.03118 0.82286,-2.4694 2.22683,-6.06773 3.11995,-7.99627 0.89311,-1.92851 2.79296,-6.6622 4.22183,-10.51926 1.42887,-3.85706 3.02687,-7.95956 3.55111,-9.11668 0.52426,-1.15711 1.63044,-3.83951 2.4582,-5.9609 4.26784,-10.93757 5.47821,-13.99902 6.9314,-17.53208 0.87253,-2.12139 2.07212,-5.11937 2.66575,-6.66218 0.59357,-1.54285 1.49695,-3.77257 2.00745,-4.955 2.48411,-5.75343 6.59543,-16.08701 6.59543,-16.57719 0,-0.30378 1.10402,-2.94245 2.45339,-5.86372 1.34934,-2.92128 2.6466,-6.08135 2.88283,-7.02241 0.23615,-0.94107 0.74532,-1.90628 1.13143,-2.14489 1.69892,-1.05001 2.02879,1.98261 1.61244,14.82341 -0.23776,7.32841 -0.7244,23.10727 -1.08174,35.06417 -1.12039,37.48989 -1.89763,55.57571 -2.42514,56.42922 -0.52041,0.84208 -2.27758,0.70662 -10.18348,-0.78482 z m 437.47746,-2.34687 c -1.01606,-5.5792 -3.5526,-32.82351 -4.76633,-51.19367 -0.38225,-5.78559 -1.02563,-13.20165 -1.4297,-16.48017 -2.46742,-20.01868 -2.72789,-27.85288 -0.94878,-28.53558 0.63098,-0.24226 1.65658,-0.12908 2.27919,0.25153 0.98174,0.59996 6.38301,10.80716 10.03557,18.96508 1.66767,3.72465 6.49661,14.17515 9.81498,21.24085 6.25245,13.31318 11.66645,24.99181 12.51648,26.99941 0.32659,0.7714 2.38137,5.18947 4.56614,9.81795 2.18476,4.62846 4.01723,9.36061 4.07209,10.5159 0.0895,1.88561 -0.18713,2.1777 -2.70535,2.85509 -1.54279,0.41503 -3.2785,0.92422 -3.85706,1.13156 -1.72785,0.61924 -5.50748,1.72085 -14.02563,4.08796 -4.43563,1.23263 -8.85373,2.50633 -9.81799,2.83043 -0.96425,0.32414 -2.53385,0.52846 -3.48796,0.45409 -1.43624,-0.11185 -1.82265,-0.61798 -2.24565,-2.94039 z m -58.78447,-6.51366 c -13.37208,-6.41523 -18.12801,-8.56393 -18.95543,-8.56393 -2.09637,0 -0.36529,-3.26871 8.72777,-16.48017 9.856,-14.31993 10.22766,-14.88853 10.22766,-15.6468 0,-0.39406 0.31098,-0.82164 0.69107,-0.95022 0.6619,-0.22396 5.27726,-6.71148 13.88619,-19.51906 2.20371,-3.27851 4.32232,-6.33651 4.70801,-6.79562 0.38575,-0.4591 1.41416,-1.87919 2.2854,-3.1558 4.77576,-6.99759 11.02802,-15.13887 12.66906,-16.4968 1.03202,-0.85397 2.62224,-1.56401 3.5339,-1.5779 1.5779,-0.0238 1.63495,0.1349 1.18832,3.30588 -0.25816,1.8321 -1.0676,5.38237 -1.79905,7.88944 -0.73145,2.5071 -1.79833,6.45181 -2.37077,8.76604 -0.57245,2.31424 -1.55592,6.10118 -2.18543,8.4154 -0.62954,2.31425 -2.11425,7.83685 -3.29937,12.27246 -1.18514,4.43561 -2.90926,10.74716 -3.8314,14.02567 -2.96825,10.55307 -3.58739,12.90191 -4.43661,16.8308 -0.45851,2.12138 -1.40623,5.59272 -2.10603,7.71411 -0.69975,2.1214 -1.66311,5.59274 -2.14079,7.71412 -1.56036,6.93001 -2.13002,7.87242 -4.52004,7.47796 -1.1571,-0.19085 -6.67973,-2.54245 -12.27246,-5.22558 z m -325.66545,0.92806 c -0.62293,-0.9507 -1.13256,-2.21776 -1.13256,-2.8157 0,-0.59793 -3.11487,-10.47086 -6.92194,-21.93979 -3.80708,-11.46893 -9.84488,-29.84654 -13.41738,-40.83916 -3.57247,-10.99262 -7.44258,-22.76873 -8.60021,-26.16913 -1.46621,-4.30661 -1.88205,-6.40534 -1.37059,-6.91678 0.51143,-0.51144 1.12508,-0.26265 2.02246,0.81983 0.70852,0.85472 2.30655,2.70498 3.55115,4.11163 1.24457,1.4067 2.27021,2.95208 2.27916,3.4342 0.009,0.48213 0.32725,0.87661 0.70735,0.87661 0.38006,0 1.40572,1.07926 2.27916,2.39834 0.87345,1.31908 5.37502,7.19368 10.0035,13.05464 4.62847,5.86096 10.39418,13.22342 12.81272,16.36098 2.41848,3.1376 5.12409,6.49366 6.01243,7.45792 0.88832,0.96425 3.76703,4.5934 6.39709,8.06476 2.63008,3.47133 5.21041,6.5639 5.73406,6.87234 0.52366,0.30844 0.95207,0.89631 0.95207,1.3063 0,0.41004 0.79916,1.73558 1.77588,2.94564 0.97676,1.21006 3.81695,4.72103 6.31156,7.80215 2.49463,3.08112 4.53566,6.14804 4.53566,6.81539 0,2.46708 -12.69496,10.38091 -25.24619,15.73804 -6.4406,2.74898 -7.25346,2.80717 -8.68538,0.62179 z m -89.78635,-2.71741 c -1.18931,-0.89604 -4.47295,-3.02356 -7.29691,-4.72782 -2.82398,-1.7043 -5.86683,-3.57205 -6.76198,-4.15061 -0.8951,-0.57857 -3.33917,-2.06754 -5.43125,-3.30886 -2.0921,-1.24131 -4.37674,-2.89002 -5.07698,-3.66379 -1.2294,-1.35847 -1.22947,-1.47368 -0.002,-3.3533 1.13786,-1.74247 8.0137,-9.6618 16.01181,-18.44178 1.58871,-1.74402 4.11638,-4.58421 5.61705,-6.31155 1.50073,-1.72736 4.8656,-5.5075 7.47751,-8.40031 2.61193,-2.89276 9.06804,-10.15107 14.34687,-16.12948 5.27884,-5.97845 10.44015,-11.81663 11.46963,-12.97374 1.02946,-1.15714 4.23298,-4.78626 7.11892,-8.06477 5.3745,-6.10559 6.58618,-7.21665 7.48559,-6.86406 0.69014,0.27054 0.26479,4.23631 -0.54434,5.0758 -0.3532,0.36642 -0.64219,1.11023 -0.64219,1.65294 0,0.54271 -0.91737,2.92532 -2.03861,5.29469 -1.12122,2.36937 -2.44706,5.72804 -2.94631,7.46373 -0.49921,1.73567 -1.09703,3.31355 -1.3285,3.50643 -0.23139,0.19296 -0.99681,1.92851 -1.70087,3.85703 -0.7041,1.92855 -1.66979,4.45318 -2.146,5.61028 -0.47622,1.15711 -1.97097,4.78626 -3.32165,8.06477 -1.35071,3.2785 -3.47336,8.48553 -4.71697,11.57115 -1.24364,3.08566 -2.70688,6.44794 -3.25163,7.47169 -0.54479,1.02379 -0.99052,2.31649 -0.99052,2.87271 0,0.55621 -0.4431,1.92761 -0.98466,3.04757 -1.88312,3.89425 -3.76017,8.35851 -4.24716,10.10103 -0.26947,0.96427 -0.90441,2.69994 -1.41095,3.85706 -0.50655,1.15713 -2.2404,5.40277 -3.85305,9.43479 -4.11738,10.29464 -3.9699,10.07806 -6.51639,9.56876 -1.18577,-0.23722 -3.12904,-1.16432 -4.31836,-2.06036 z m 511.76142,-5.31115 c -1.22141,-2.4392 -3.04701,-6.21203 -4.05695,-8.3841 -1.0099,-2.17206 -2.12489,-4.42258 -2.47775,-5.00115 -1.53896,-2.52325 -9.1273,-19.10151 -9.1273,-19.94037 0,-0.50953 -0.47339,-1.31924 -1.05195,-1.79942 -0.57855,-0.48016 -1.05191,-1.17016 -1.05191,-1.53337 0,-0.36317 -0.82743,-2.4547 -1.83875,-4.6478 -1.01132,-2.19309 -2.38886,-5.24974 -3.06124,-6.79257 -0.67236,-1.5428 -2.81581,-6.1187 -4.76321,-10.1686 -1.94743,-4.04992 -4.84242,-10.20368 -6.43339,-13.67501 -1.59091,-3.47136 -3.18997,-6.85004 -3.55344,-7.50818 -0.36347,-0.65813 -0.86488,-2.4727 -1.11427,-4.03239 -0.42276,-2.64378 -0.34056,-2.83646 1.21404,-2.84614 1.56188,-0.0108 17.21718,15.39889 62.30251,61.32075 8.86081,9.02521 8.83741,8.95444 4.07288,12.3244 -1.36329,0.96425 -4.48833,3.15981 -6.94451,4.87899 -2.45622,1.7192 -6.20149,4.34132 -8.32287,5.82693 -7.35231,5.14887 -10.12227,6.84173 -10.84497,6.62782 -0.39943,-0.11823 -1.72554,-2.21062 -2.94692,-4.64979 z M 564.3919,444.36273 c -4.10296,-4.14635 -9.94192,-10.14245 -12.97548,-13.32472 l -5.51552,-5.78594 1.67907,-1.78727 c 0.92349,-0.98299 3.26628,-2.88169 5.20622,-4.2193 9.02102,-6.22005 17.6492,-12.30252 18.60477,-13.11548 0.57855,-0.49223 3.41876,-2.46566 6.31156,-4.3854 2.8928,-1.91973 5.69835,-3.90686 6.23463,-4.41578 0.53625,-0.50894 1.79856,-1.44328 2.80513,-2.0764 1.00657,-0.63311 3.57195,-2.42591 5.70081,-3.98408 2.12888,-1.55813 4.39237,-3.14858 5.03004,-3.53428 0.63766,-0.38569 4.36289,-2.86402 8.27829,-5.50738 5.73357,-3.87086 8.16642,-5.06245 12.502,-6.12345 5.07702,-1.24239 7.83764,-1.24178 7.83764,10e-4 0,0.30186 -1.01157,1.93738 -2.24792,3.63449 -4.44332,6.09921 -16.72486,23.97369 -17.81001,25.92058 -0.42493,0.76243 -1.53493,2.24802 -2.46658,3.3013 -0.93167,1.05332 -4.46695,6.01764 -7.8562,11.03181 -3.38921,5.01418 -8.43301,12.3436 -11.20844,16.28762 -2.7754,3.94398 -5.97792,8.51984 -7.1167,10.16859 -2.92023,4.22791 -4.0027,5.45218 -4.82058,5.45218 -0.39204,0 -4.06976,-3.39246 -8.17273,-7.53878 z m -258.09158,-0.35064 c -1.13632,-1.25357 -5.54496,-6.69728 -9.79697,-12.09715 -4.25202,-5.39989 -9.41807,-11.86923 -11.48014,-14.37632 -2.06204,-2.50708 -4.9199,-6.10501 -6.35075,-7.99545 -1.43088,-1.89041 -3.76705,-4.88509 -5.19151,-6.65488 -1.42444,-1.76977 -2.90546,-3.63066 -3.29117,-4.13534 -0.3857,-0.50468 -1.1909,-1.45471 -1.78931,-2.11117 -0.59844,-0.65647 -2.79309,-3.40262 -4.87704,-6.10254 -2.08395,-2.69997 -4.04543,-5.22458 -4.35884,-5.61029 -0.31346,-0.3857 -2.09629,-2.75254 -3.96185,-5.2596 -1.86559,-2.50709 -4.34927,-5.57929 -5.51929,-6.82708 -1.17002,-1.24781 -2.31076,-2.74679 -2.53498,-3.33108 -0.22423,-0.58431 -0.74095,-1.06239 -1.14832,-1.06239 -0.40736,0 -1.04765,-0.71005 -1.4229,-1.57788 -0.37523,-0.86784 -1.07038,-2.12144 -1.54476,-2.78583 -0.62022,-0.8686 -0.64869,-1.42177 -0.10148,-1.96908 0.5473,-0.54729 2.80844,0.47234 8.049,3.62967 4.00832,2.41496 7.66433,4.75947 8.12444,5.21007 0.46013,0.45058 3.40713,2.32624 6.54891,4.16814 3.14175,1.84189 8.17534,4.95933 11.18577,6.9276 6.38675,4.17591 14.41994,9.24266 18.10843,11.42158 5.30622,3.13456 7.58178,4.52966 10.65695,6.53349 1.73567,1.131 4.31777,2.69367 5.73801,3.47264 1.42022,0.77897 2.76895,1.71845 2.99718,2.08771 0.22819,0.36927 2.69536,1.97175 5.48252,3.56103 4.60095,2.62352 6.88101,4.07703 11.55445,7.36579 1.73787,1.22298 2.06268,3.46174 0.70127,4.83346 -0.48212,0.48576 -2.61225,2.88178 -4.73366,5.32446 -2.12137,2.44264 -4.33042,4.95226 -4.90898,5.57692 -0.57855,0.62465 -3.69966,4.0443 -6.93582,7.59919 -3.23613,3.55491 -6.16498,6.46348 -6.50854,6.46348 -0.34354,0 -1.55438,-1.02561 -2.69069,-2.27915 z m -156.43203,-4.2077 c -0.82973,-0.86786 -3.68712,-4.4181 -6.34974,-7.88945 -2.66262,-3.47135 -6.8667,-8.83618 -9.34236,-11.92181 -6.14715,-7.66173 -6.09269,-8.43231 0.84122,-11.90306 2.98923,-1.49625 6.27261,-3.296 7.29642,-3.99941 1.02379,-0.70343 2.36501,-1.27897 2.98045,-1.27897 0.61544,0 1.11899,-0.24383 1.11899,-0.54181 0,-0.29799 1.18343,-1.12118 2.62981,-1.82929 4.4321,-2.16979 12.29593,-6.25381 15.25295,-7.92147 1.54279,-0.87011 5.32972,-2.88284 8.41536,-4.47273 3.08564,-1.58987 5.92587,-3.13293 6.31156,-3.42904 0.6738,-0.51726 6.27774,-3.51344 22.09042,-11.81081 4.04992,-2.1251 7.69427,-4.11854 8.09858,-4.42986 1.25545,-0.96669 12.1844,-6.23943 12.93265,-6.23943 1.69783,0 1.08795,0.84753 -9.04638,12.57204 -2.85811,3.30659 -5.85607,6.67537 -6.66219,7.48617 -0.80607,0.81079 -2.40633,2.54645 -3.55613,3.85703 -8.61797,9.82327 -18.32226,20.73485 -18.95883,21.31754 -0.42141,0.3857 -3.10284,3.38369 -5.95872,6.6622 -2.8559,3.27851 -7.09914,8.01667 -9.42944,10.52928 -4.84674,5.22597 -10.39374,11.4095 -13.11499,14.62011 -2.21172,2.60938 -3.51084,2.75516 -5.54963,0.62277 z M 716.4211,425.04956 c -5.99532,-6.2524 -12.75667,-13.30299 -15.02519,-15.66801 -2.26849,-2.36502 -9.48939,-9.91062 -16.04641,-16.768 -6.55698,-6.85739 -12.74126,-13.28518 -13.74278,-14.28399 -5.31245,-5.29795 -11.85405,-12.71631 -11.85405,-13.44294 0,-1.37256 5.10052,-0.3027 10.32038,2.16477 11.72433,5.54226 13.88828,6.64012 14.10767,7.1576 0.12853,0.30324 0.75693,0.55136 1.39637,0.55136 0.63941,0 3.37443,1.08154 6.07777,2.4034 4.5859,2.2424 15.76497,7.49261 18.94084,8.89551 0.77143,0.34076 1.87594,0.91805 2.45452,1.28284 0.57856,0.36481 3.41874,1.7553 6.31156,3.08998 24.98915,11.52946 28.30868,13.15444 29.9589,14.6655 1.49959,1.37311 1.51339,1.49944 0.37475,3.42695 -0.6502,1.1007 -1.42972,2.00126 -1.73225,2.00126 -0.30255,0 -0.55143,0.39449 -0.55311,0.8766 -9.9e-4,0.48214 -1.26445,2.54047 -2.80623,4.57405 -1.54178,2.03358 -3.58021,4.87376 -4.52991,6.31154 -0.94966,1.43777 -2.68482,3.96651 -3.85595,5.61942 -1.1711,1.65292 -2.12925,3.12618 -2.12925,3.27394 0,0.92845 -5.20846,5.83428 -5.90886,5.56552 -0.47198,-0.18103 -5.76344,-5.44489 -11.75877,-11.6973 z M 538.96541,411.40239 c -7.21634,-14.90264 -10.35272,-21.70733 -10.35272,-22.46111 0,-1.06287 5.16739,-2.13059 17.67059,-3.65112 6.28797,-0.76471 14.58843,-1.88095 18.4455,-2.48054 3.85705,-0.59956 9.85303,-1.38628 13.32437,-1.74825 3.47136,-0.36195 8.36281,-0.99381 10.86993,-1.40412 7.51194,-1.22936 15.74057,-1.92315 16.3553,-1.37898 0.31706,0.28063 -1.73417,2.27806 -4.55832,4.43873 -2.82413,2.16063 -5.51597,4.25231 -5.98182,4.64811 -0.46584,0.39579 -1.05371,0.71964 -1.30633,0.71964 -0.4179,0 -7.71638,5.18376 -10.03195,7.12518 -0.53058,0.4449 -3.37078,2.44051 -6.31155,4.43474 -2.94072,1.99425 -7.55583,5.15444 -10.25578,7.02268 -2.69993,1.86826 -6.64468,4.58218 -8.76605,6.03095 -2.1214,1.44877 -5.59273,3.90929 -7.71413,5.46783 -5.96046,4.37901 -6.00387,4.35322 -11.38704,-6.76374 z m -210.31131,0.56116 c -2.45603,-1.53155 -6.83233,-4.22607 -9.72514,-5.98782 -4.55731,-2.77549 -11.79846,-7.35777 -17.19021,-10.87817 -0.88609,-0.57854 -4.10509,-2.52442 -7.15332,-4.32415 -3.04821,-1.79973 -5.95705,-3.7721 -6.46409,-4.38302 -0.50701,-0.61094 -1.17439,-1.11079 -1.48305,-1.11079 -0.57669,0 -11.77246,-6.75978 -19.25362,-11.62494 -2.31427,-1.50502 -4.73747,-3.05531 -5.38497,-3.44515 -4.29832,-2.58789 -14.46382,-9.19368 -15.49479,-10.06887 -0.68412,-0.58074 -0.99968,-1.27233 -0.70129,-1.53686 0.65004,-0.57624 10.57507,0.60357 12.21322,1.45186 0.63329,0.32794 3.63127,1.08299 6.66219,1.67791 3.03093,0.5949 7.7198,1.57053 10.41973,2.16807 2.69994,0.59753 7.74918,1.68796 11.22055,2.42316 3.47132,0.73521 9.94065,2.10638 14.37628,3.04705 4.43562,0.94074 9.95824,2.20521 12.27247,2.80999 2.31425,0.60476 6.85283,1.59723 10.08575,2.20546 3.23296,0.60825 6.16984,1.28623 6.52648,1.50662 0.35663,0.22053 2.28737,0.64848 4.29056,0.95123 6.9043,1.0436 14.16382,2.87963 15.10618,3.82055 0.79205,0.79086 0.0836,3.09656 -4.383,14.26138 -2.9303,7.32492 -5.32783,13.4755 -5.32783,13.66797 0,0.19243 -0.65808,1.83758 -1.46237,3.65586 -1.74791,3.95145 -2.38436,3.93146 -9.14973,-0.28734 z M 120.53529,390.93972 c -4.74674,-14.27627 -5.70407,-17.83476 -4.92725,-18.31487 0.53029,-0.32774 3.02362,-0.91719 5.54076,-1.30989 17.94625,-2.79985 28.88948,-4.39499 36.3592,-5.2999 4.75213,-0.5757 11.49929,-1.54277 14.99375,-2.14907 3.49442,-0.60627 9.38924,-1.38919 13.09956,-1.73979 3.71031,-0.35058 9.27065,-1.09916 12.35628,-1.66355 3.08565,-0.56435 8.60826,-1.37559 12.27245,-1.80275 3.66421,-0.42719 7.53005,-0.96081 8.59073,-1.18589 3.61786,-0.76774 2.11245,1.58901 -2.92774,4.58333 -2.67094,1.58678 -4.98952,2.88506 -5.15235,2.88506 -0.163,0 -4.29304,2.20902 -9.17816,4.90896 -4.88514,2.69995 -9.1937,4.90899 -9.5746,4.90899 -0.38086,0 -0.69368,0.23669 -0.69516,0.52597 -9.9e-4,0.28927 -1.50044,1.12589 -3.33109,1.85914 -1.83065,0.73325 -3.80182,1.70787 -4.38038,2.1658 -0.94342,0.74671 -6.12845,3.5989 -17.51606,9.63521 -2.11257,1.11985 -4.16381,2.28468 -4.55833,2.58853 -0.39453,0.3039 -5.60878,3.08303 -11.58721,6.17591 -11.26676,5.82872 -15.97974,8.37676 -17.18143,9.28903 -1.05826,0.80339 -4.81356,2.03006 -5.61026,1.83261 -0.38573,-0.0957 -3.35245,-8.14737 -6.59271,-17.89283 z m 621.41368,7.59412 c -3.96956,-1.88996 -7.34998,-3.43628 -7.51205,-3.43628 -0.3308,0 -7.27576,-3.2206 -19.28286,-8.94207 -4.4356,-2.11362 -9.80046,-4.62973 -11.92183,-5.59135 -10.34745,-4.69052 -14.47974,-6.60584 -15.59403,-7.22788 -0.66976,-0.37386 -1.69538,-0.67976 -2.27917,-0.67976 -0.58378,0 -1.06143,-0.25472 -1.06143,-0.56631 0,-0.3115 -1.34121,-1.1384 -2.98045,-1.83755 -12.43042,-5.30187 -20.16191,-9.91332 -20.16191,-12.0256 0,-0.96232 4.36889,-1.95969 6.1669,-1.40787 0.65811,0.20196 4.9835,0.68453 9.61196,1.07237 4.62847,0.38779 13.14907,1.16668 18.93465,1.73081 5.78561,0.56413 14.62178,1.36767 19.63595,1.78563 9.15386,0.76298 26.71767,2.48282 32.60966,3.1931 1.73569,0.20914 5.6015,0.56282 8.59076,0.78575 3.77781,0.28177 5.43492,0.68275 5.43492,1.31514 0,0.80132 -2.54589,10.80705 -7.31431,28.74623 -0.82022,3.08566 -1.74561,6.01758 -2.0565,6.51541 -0.73198,1.17225 -1.99605,0.77157 -10.82026,-3.42977 z M 492.84778,386.85748 c 3.1e-4,-0.28927 1.13495,-1.78825 2.52142,-3.3311 1.38652,-1.54281 3.46904,-4.17011 4.62786,-5.83843 2.35781,-3.39441 6.87584,-12.8198 6.87584,-14.3441 0,-1.4276 2.57634,-3.54831 3.75922,-3.09439 1.62358,0.62303 5.05092,23.2793 3.65887,24.18674 -2.13013,1.38859 -21.44441,3.56947 -21.44321,2.42128 z m 33.88892,-8.24008 c -1.44941,-6.12531 -2.58279,-17.21085 -1.83601,-17.95765 0.76398,-0.76397 20.54672,-1.00438 61.56786,-0.74817 22.90553,0.14313 26.46835,0.30315 25.36441,1.1398 -0.70639,0.53535 -2.91544,1.3353 -4.90897,1.77767 -1.99354,0.44238 -4.72913,1.21953 -6.07913,1.727 -1.34996,0.50747 -5.45246,1.61134 -9.11667,2.45307 -3.66422,0.84169 -7.29335,1.78698 -8.06476,2.10063 -0.77141,0.31367 -3.45382,1.05939 -5.96091,1.65722 -2.50708,0.5978 -8.18748,2.063 -12.6231,3.25606 -4.43562,1.19302 -9.32708,2.46018 -10.86989,2.8159 -2.53097,0.58358 -12.86599,3.37088 -18.23339,4.91749 -1.15711,0.33344 -3.52267,0.5525 -5.25675,0.48682 l -3.15297,-0.11927 z m 33.21644,-0.7463 c 0.69807,-0.52925 2.27999,-0.97231 3.51539,-0.98458 1.23541,-0.0133 2.97107,-0.29814 3.85706,-0.63523 3.06715,-1.167 8.66257,-2.77986 17.38978,-5.01258 4.82131,-1.23345 9.23937,-2.4203 9.81795,-2.63741 0.57855,-0.21706 2.62981,-0.77482 4.55833,-1.23929 1.92854,-0.46448 7.29336,-1.80445 11.92182,-2.97769 11.74658,-2.9775 13.94119,-3.26573 15.01494,-1.97192 0.73199,0.88199 0.47806,1.46006 -1.51833,3.45643 -1.31853,1.31855 -3.15899,2.88983 -4.0899,3.49176 -2.1151,1.36763 -11.54092,3.75167 -17.12082,4.33034 -2.31423,0.23988 -8.46801,1.06011 -13.67502,1.82249 -14.11829,2.06705 -29.72813,3.91715 -30.37247,3.59973 -0.31236,-0.15398 0.002,-0.71279 0.70127,-1.24205 z m -220.56815,-2.04805 c -5.3254,-1.36033 -30.08046,-6.779 -32.72848,-7.16395 -1.15711,-0.16832 -2.73501,-0.57575 -3.50641,-0.90559 -0.77143,-0.32986 -2.66488,-0.77413 -4.20769,-0.98731 -2.86985,-0.39649 -4.20411,-0.67014 -15.77889,-3.23588 -3.66422,-0.81221 -7.76671,-1.64262 -9.11668,-1.84533 -1.34999,-0.20277 -2.92788,-0.55142 -3.50643,-0.77489 -0.57855,-0.22343 -5.15443,-1.26578 -10.1686,-2.31633 -10.52615,-2.20534 -13.51336,-3.21023 -12.51398,-4.20959 0.75628,-0.75635 8.66405,-2.15121 19.52684,-3.44445 3.85702,-0.45918 9.69522,-1.28199 12.97372,-1.82846 3.27848,-0.54647 9.90563,-1.47413 14.72696,-2.06149 4.82131,-0.58737 11.60622,-1.53324 15.07758,-2.10197 3.47137,-0.56875 9.15174,-1.34451 12.6231,-1.72397 3.47137,-0.37944 8.3628,-1.02481 10.86987,-1.43416 10.9904,-1.79444 14.33107,-2.16892 15.88045,-1.78003 l 1.65165,0.41454 v 18.66721 18.6672 l -3.91356,-0.45999 c -2.15248,-0.25286 -5.70272,-0.91697 -7.88945,-1.47556 z m 118.59336,-2.9161 c -3.81829,-2.17804 -7.94539,-7.13183 -9.43294,-11.32256 -2.37505,-6.69081 -0.93961,-16.27795 2.43722,-16.27795 0.74533,0 2.58035,1.22521 4.07783,2.72265 2.38485,2.38486 2.72259,3.12866 2.72259,5.9957 0,4.27527 1.38209,6.8057 5.2242,9.56488 2.68671,1.92945 3.25305,2.77981 3.96241,5.94946 1.16162,5.19071 0.68698,6.05163 -3.03262,5.50064 -1.64903,-0.24439 -4.33043,-1.20405 -5.95869,-2.13282 z m 17.76471,-3.67339 c -0.98344,-7.41359 3.4644,-11.37636 10.61729,-9.45944 1.21434,0.32542 1.57788,0.93356 1.57788,2.63944 0,3.73739 -8.10209,11.55865 -10.87242,10.49555 -0.48399,-0.1858 -1.07921,-1.83972 -1.32275,-3.67555 z m -360.69884,-2.012 c -0.91293,-3.26444 -0.46503,-26.75009 0.59848,-31.38241 0.9313,-4.05643 1.05233,-4.21596 3.36617,-4.43651 2.26537,-0.216 5.94356,0.47027 18.28772,3.41166 2.89277,0.68933 6.67972,1.46465 8.41541,1.72298 1.73566,0.25843 5.5226,1.05862 8.41539,1.77846 5.2291,1.30116 17.81367,3.89732 23.84363,4.91882 1.73567,0.29405 5.04923,1.0197 7.36347,1.61261 4.55489,1.16695 23.61355,5.07719 29.70283,6.09412 5.09958,0.85162 7.26497,2.70101 4.48473,3.83024 -0.67499,0.27417 -2.96292,0.75746 -5.08432,1.07398 -12.30121,1.83557 -14.8278,2.19861 -19.28526,2.77118 -2.69992,0.34681 -6.64467,0.82362 -8.76605,1.05955 -2.12138,0.2359 -4.96159,0.71039 -6.31155,1.05437 -1.34996,0.34396 -5.45247,0.98308 -9.11667,1.42027 -3.66422,0.43716 -10.76472,1.37506 -15.77889,2.08418 -5.01418,0.70914 -11.95688,1.64118 -15.42821,2.07116 -3.47138,0.43002 -8.04723,1.08467 -10.16863,1.45477 -6.09666,1.06364 -7.15789,1.19217 -10.68119,1.29359 -3.05526,0.088 -3.36041,-0.057 -3.85706,-1.83302 z m 521.0054,-0.45328 c -1.17363,-0.60688 -2.78989,-2.02478 -3.59172,-3.15083 -2.66015,-3.73582 -1.60433,-3.85626 3.75446,-0.42826 3.28628,2.10218 4.43761,2.45448 8.02141,2.45448 3.83051,0 4.37018,-0.19693 6.38054,-2.32831 2.92725,-3.10341 4.22939,-5.75058 4.22939,-8.59795 0,-2.45642 -1.94835,-7.30712 -2.93503,-7.30712 -0.31428,0 -0.57141,-0.47603 -0.57141,-1.05784 0,-1.74818 2.62289,0.30926 3.94434,3.09401 1.58646,3.34327 0.96964,9.68846 -1.23131,12.66539 -4.08655,5.52738 -12.23858,7.63615 -18.00067,4.65643 z m 103.99999,-5.03106 c -10.03722,-1.11453 -16.46257,-1.72928 -31.90839,-3.05279 -4.82133,-0.41309 -11.9218,-1.08915 -15.77885,-1.50228 -3.85708,-0.41315 -8.74852,-0.892 -10.8699,-1.06417 -10.40308,-0.84431 -18.66715,-1.91934 -19.41893,-2.52609 -1.71764,-1.3863 0.0591,-2.55732 6.6627,-4.39107 3.73742,-1.03785 8.53099,-2.38698 10.6524,-2.99805 3.93203,-1.13262 12.14938,-3.31847 20.33717,-5.40982 2.50711,-0.64036 6.60961,-1.7641 9.11671,-2.49721 2.50707,-0.7331 6.60957,-1.83858 9.11668,-2.45659 2.50707,-0.61804 6.6096,-1.71466 9.11667,-2.43692 7.54794,-2.17454 12.69519,-3.56932 18.23338,-4.94071 2.8928,-0.71633 6.60107,-1.67578 8.24059,-2.13214 3.59076,-0.99945 4.69686,-0.3426 5.80841,3.44942 1.47923,5.0463 2.73772,16.02969 2.75955,24.08352 0.0185,6.95417 -0.15664,8.30527 -1.15022,8.86138 -1.39973,0.78335 -7.62219,0.4899 -20.91797,-0.98648 z m -100.89694,0.34389 c -1.01993,-0.80231 -1.675,-1.74906 -1.45573,-2.10385 0.2192,-0.35483 2.43135,-0.64514 4.91569,-0.64514 3.36911,0 4.51694,0.24545 4.51694,0.96606 0,1.55834 -2.14539,2.82791 -5.34039,3.1603 -0.4301,0.0448 -1.61651,-0.57509 -2.63651,-1.37737 z M 227.5096,360.43113 c -2.3381,-2.2051 -2.55261,-2.73331 -2.55261,-6.28626 0,-3.69375 0.12485,-3.96375 2.61729,-5.65734 2.4698,-1.67831 5.82136,-2.40475 5.77861,-1.25255 -0.0108,0.28927 -0.94038,1.74269 -2.0659,3.22982 l -2.04642,2.70386 1.83027,2.9064 c 2.34063,3.71693 3.6853,4.71904 5.22595,3.89451 1.50913,-0.80766 1.9846,-0.80435 1.9846,0.0132 0,1.55976 -2.36461,2.85522 -5.21163,2.85522 -2.46278,0 -3.46996,-0.43605 -5.56016,-2.40737 z m 421.09244,-8.63781 c -0.0837,-2.72956 0.79914,-2.95606 1.92139,-0.49296 1.05291,2.31088 1.03187,4.02664 -0.0628,5.12204 -0.70149,0.70197 -0.96772,0.55487 -1.33267,-0.73637 -0.25072,-0.88744 -0.48753,-2.63915 -0.52596,-3.89271 z m -400.36407,-1.47739 c -1.19414,-0.75741 2.11526,-3.30473 9.06295,-6.97603 2.84611,-1.50395 8.33052,-4.40671 12.18758,-6.45062 3.85705,-2.04387 7.64398,-4.03321 8.4154,-4.42068 0.77142,-0.38749 1.87593,-0.96476 2.45449,-1.28281 0.57857,-0.31808 4.04991,-2.11966 7.7141,-4.00354 6.62066,-3.40389 20.47399,-10.58308 31.20712,-16.17238 3.08564,-1.60688 6.08364,-3.21821 6.66218,-3.58078 0.57857,-0.36257 2.15646,-1.12885 3.50642,-1.70289 1.34998,-0.57399 3.82942,-1.85815 5.50993,-2.85365 4.99015,-2.95616 5.96265,-1.76086 10.2757,12.62935 0.92481,3.08568 2.48507,8.27646 3.4672,11.53519 0.98211,3.25868 1.78568,6.64305 1.78568,7.52076 0,2.24327 -2.72812,3.44716 -9.81798,4.33261 -3.27848,0.40942 -9.90562,1.23244 -14.72695,1.82892 -4.82132,0.59645 -10.34391,1.38377 -12.27243,1.74963 -1.92854,0.36581 -7.29337,1.02498 -11.92184,1.46476 -4.62845,0.43978 -9.04655,1.06868 -9.81797,1.39756 -0.7714,0.32888 -3.6116,0.76647 -6.31154,0.97235 -2.69994,0.20595 -7.11803,0.68302 -9.81796,1.0602 -2.69994,0.37722 -7.43361,1.03981 -10.51925,1.47239 -15.44637,2.16555 -15.89945,2.20489 -17.04283,1.47966 z m 360.32102,-1.17267 c -5.97844,-0.58743 -15.91914,-1.38635 -22.09044,-1.77539 -19.60126,-1.23571 -30.47658,-1.97999 -44.88212,-3.07168 -7.71413,-0.58455 -14.62481,-1.06976 -15.35709,-1.07822 -1.23485,-0.0134 -1.30107,-0.44505 -0.91328,-5.94016 0.65296,-9.25242 2.54462,-11.56665 8.72473,-10.67365 1.45015,0.20939 8.31704,1.01222 15.25976,1.7837 6.94269,0.77151 15.14772,1.75519 18.23335,2.186 3.08566,0.43078 8.29269,1.05466 11.57119,1.38639 8.95491,0.90612 24.3918,4.19793 28.75263,6.1313 2.12135,0.94054 5.46637,2.47529 7.43334,3.41055 1.96699,0.93527 3.76574,1.7005 3.99722,1.7005 1.03931,0 6.80278,4.39917 6.80278,5.19242 0,2.20605 -1.87904,2.28623 -17.53207,0.74824 z m -83.11059,-0.389 c -0.62278,-0.62279 -0.90028,-1.60226 -0.64351,-2.27137 0.53101,-1.38377 1.72783,-1.42573 12.92446,-0.45296 4.43562,0.38539 12.48287,1.01194 17.88275,1.39237 5.39988,0.38047 11.39586,0.92437 13.32438,1.20874 l 3.50642,0.51702 -3.50642,0.35837 c -1.92852,0.1972 -12.25593,0.35486 -22.94976,0.35059 -16.6805,-0.009 -19.59896,-0.16327 -20.53832,-1.10276 z m -315.91963,-1.00263 c -4.82132,-0.9205 -10.02834,-1.9794 -11.57118,-2.3531 -1.5428,-0.37368 -4.6986,-1.05507 -7.01281,-1.51417 -2.31425,-0.45912 -6.73523,-1.43287 -9.82445,-2.16389 -3.08918,-0.73103 -8.13841,-1.80077 -11.22051,-2.37718 -3.08211,-0.5764 -7.02394,-1.3821 -8.75961,-1.79039 -1.73566,-0.40834 -4.73807,-1.00252 -6.67199,-1.32046 -1.93392,-0.31791 -5.40528,-1.05027 -7.71413,-1.62742 -2.30882,-0.57715 -6.4069,-1.44728 -9.10686,-1.93362 -2.69995,-0.48638 -7.32838,-1.47158 -10.28544,-2.18939 -2.95707,-0.71778 -6.15311,-1.30506 -7.10229,-1.30506 -2.2449,0 -3.54141,-1.6038 -2.94907,-3.64809 0.41667,-1.43798 4.47829,-12.00994 6.00764,-15.63723 0.32524,-0.77141 1.41045,-3.4538 2.41154,-5.96088 1.0011,-2.50711 2.25743,-5.50508 2.79182,-6.66222 0.53442,-1.15709 1.13965,-2.6561 1.345,-3.33109 0.57783,-1.89958 2.49797,-1.4716 7.07952,1.57792 2.31423,1.54033 4.47785,2.80164 4.80808,2.80289 0.33016,9.9e-4 1.79571,0.94897 3.25667,2.10607 1.46099,1.15712 2.86496,2.10385 3.11997,2.10385 0.25498,0 2.85684,1.57788 5.78185,3.50641 2.925,1.92853 5.60282,3.50642 5.9507,3.50642 0.34788,0 1.48756,0.60254 2.53264,1.33899 2.74306,1.93294 15.58944,9.88155 15.97041,9.88155 0.17704,0 2.1712,1.26232 4.43142,2.80514 2.26024,1.54282 4.32896,2.80512 4.59721,2.80512 0.2682,0 1.52201,0.78896 2.78625,1.75321 1.26422,0.96427 2.66326,1.75322 3.10898,1.75322 0.44573,0 0.81041,0.2943 0.81041,0.654 0,0.35974 0.69221,0.87375 1.53826,1.14228 0.84606,0.26852 3.05186,1.55208 4.9018,2.85238 1.84992,1.30029 3.50873,2.36416 3.6862,2.36416 0.17758,0 1.67971,0.89843 3.33828,1.99651 1.65858,1.09807 4.12013,2.59708 5.47011,3.33107 1.34997,0.73405 3.60444,2.20246 5.00989,3.26314 1.40548,1.06069 2.90448,1.92852 3.3311,1.92852 0.86965,0 1.04928,1.59652 0.26756,2.37825 -0.27948,0.27946 -1.1473,0.31207 -1.92852,0.0723 -0.78124,-0.23961 -5.36514,-1.18881 -10.18645,-2.10933 z m 298.05565,-0.32217 c -0.40302,-0.75306 -0.39248,-4.53823 0.0275,-9.91079 0.97815,-12.50958 0.99051,-12.54942 3.897,-12.54942 1.58946,0 2.57122,0.39206 2.85888,1.14166 0.84257,2.19571 -1.97939,20.47913 -3.47044,22.48495 -0.77245,1.03913 -2.44843,0.44904 -3.31298,-1.1664 z m -26.91556,1.02509 c -0.59007,-1.53772 0.18078,-4.69461 1.60851,-6.5874 l 1.23768,-1.64088 1.9155,2.01413 c 2.19879,2.31202 3.42758,4.99128 2.90898,6.34275 -0.52622,1.3713 -7.13765,1.26042 -7.67067,-0.12855 z m 180.5927,-1.66498 c -1.68401,-1.06721 -0.5252,-3.14654 3.16185,-5.67362 1.98343,-1.35944 5.13639,-3.55693 7.00656,-4.8833 1.87016,-1.3264 7.6606,-5.29785 12.86763,-8.82547 13.53374,-9.1688 18.55117,-12.61131 35.30452,-24.22281 3.02499,-2.0966 6.23935,-4.28535 7.14302,-4.86389 0.90366,-0.57857 4.57248,-3.05809 8.15292,-5.51005 4.8036,-3.28962 6.79141,-4.29044 7.58394,-3.81838 0.9186,0.54715 3.2635,4.93773 7.41657,13.88675 5.59715,12.06082 7.32283,16.15042 7.48849,17.74657 0.18155,1.75071 -0.13253,1.97876 -4.71435,3.42104 -5.71766,1.79989 -12.07415,3.60155 -21.38913,6.06251 -3.6642,0.96806 -9.02903,2.39848 -11.9218,3.17871 -2.89282,0.78027 -8.41541,2.26911 -12.27247,3.3086 -3.85708,1.03947 -8.11734,2.13051 -9.46734,2.42456 -1.34997,0.29405 -4.82131,1.20191 -7.71409,2.01744 -2.89281,0.81554 -7.78426,2.08116 -10.86991,2.81251 -3.08563,0.73132 -7.18814,1.79224 -9.11668,2.3576 -4.10991,1.20479 -7.33425,1.4212 -8.65973,0.58123 z m -442.5753,-3.59859 c -2.52953,-1.54922 -5.21188,-3.20602 -5.96072,-3.68173 -5.57773,-3.54339 -8.83602,-5.42333 -9.3996,-5.42333 -0.36297,0 -0.8416,-0.47335 -1.0636,-1.05195 -0.22212,-0.57854 -0.87753,-1.0519 -1.45674,-1.0519 -0.90477,0 -3.38401,-1.51374 -13.7179,-8.37576 -0.96427,-0.64027 -2.85771,-1.70824 -4.2077,-2.37323 -1.34998,-0.66502 -5.3895,-3.0944 -8.97671,-5.39865 -3.58725,-2.30427 -6.78814,-4.18957 -7.11313,-4.18957 -0.325,0 -0.77253,-0.47337 -0.99456,-1.05192 -0.22213,-0.57856 -1.00217,-1.05194 -1.73366,-1.05194 -0.73152,0 -2.08262,-0.58528 -3.00246,-1.30069 -1.61469,-1.25574 -12.12989,-7.94951 -14.99684,-9.5467 -4.88737,-2.72275 -12.97179,-8.35748 -12.96155,-9.03407 0.0265,-1.74246 23.61358,-27.80579 25.16418,-27.80579 0.92358,0 2.87574,2.0864 7.87387,8.41541 5.26251,6.66376 7.67624,9.65597 10.4293,12.92877 1.34999,1.60482 3.24345,3.96816 4.2077,5.2519 0.9643,1.28375 2.26989,2.88967 2.90134,3.56874 0.63147,0.67905 1.4219,1.72386 1.75652,2.3218 0.3346,0.59794 1.62438,2.29034 2.86614,3.76087 4.10685,4.86352 14.21579,17.73098 14.21579,18.095 0,0.19667 0.55227,0.95711 1.22725,1.68984 3.28169,3.56245 5.78824,6.58023 9.64265,11.6093 2.31422,3.01953 5.86271,7.57559 7.88553,10.12458 5.65073,7.12071 4.90123,8.15607 -2.5851,3.57102 z m 402.44062,-1.11665 c -0.60893,-0.53658 -1.48305,-0.97559 -1.94249,-0.97559 -0.99139,0 -6.41771,-3.33697 -6.41771,-3.94664 0,-0.55123 7.12503,0.26722 11.44948,1.3152 3.46376,0.8394 5.13008,2.55097 4.38187,4.50083 -0.31749,0.82734 -1.05679,0.95186 -3.38512,0.57015 -1.63838,-0.26859 -3.4771,-0.92739 -4.08603,-1.46395 z M 230.56727,338.9949 c 0,-0.62396 -0.46334,-1.74705 -1.02961,-2.49579 -0.56629,-0.74868 -1.03968,-2.05268 -1.05196,-2.89776 -0.0132,-0.84509 -0.30146,-1.70905 -0.64271,-1.91995 -0.34124,-0.21099 -0.77852,-1.25514 -0.97175,-2.32054 -0.31394,-1.73118 -0.99031,-3.83489 -2.65201,-8.24867 -1.62307,-4.31106 -3.44299,-9.54011 -4.39336,-12.6231 -0.59451,-1.92856 -3.03313,-9.02903 -5.4192,-15.77889 -2.38604,-6.74984 -4.90847,-14.16592 -5.60537,-16.48017 -0.69686,-2.31422 -2.57688,-7.83682 -4.17774,-12.27243 -1.6009,-4.43563 -3.15887,-9.0115 -3.46219,-10.16862 -0.30333,-1.15711 -1.06939,-3.32581 -1.70232,-4.8193 -0.63296,-1.49349 -1.15081,-3.89634 -1.15081,-5.33968 0,-2.44759 0.20064,-2.69809 2.98046,-3.72205 8.2372,-3.03423 31.33617,-5.68458 33.21,-3.81049 1.12565,1.1258 -0.31177,95.97216 -1.58058,104.29116 -0.35088,2.30047 -0.43172,2.36534 -1.36191,1.0932 -0.54392,-0.74383 -0.98894,-1.86293 -0.98894,-2.48692 z m -5.807,0.94203 c -1.24177,-1.41043 -2.88891,-3.42101 -3.66031,-4.46799 -1.13982,-1.54693 -16.38244,-20.55442 -20.41192,-25.45352 -0.57847,-0.70336 -2.69179,-3.40051 -4.69625,-5.99376 -7.41507,-9.59307 -10.03063,-12.86914 -13.11774,-16.43029 -1.73895,-2.00596 -3.92719,-4.75173 -4.86278,-6.10171 -0.93563,-1.34995 -2.66861,-3.58618 -3.85116,-4.96937 -3.76048,-4.39868 -7.03849,-8.52317 -7.6968,-9.68441 -0.3508,-0.61879 -1.40206,-1.90383 -2.33618,-2.85561 -3.7391,-3.80989 -3.42488,-5.12903 1.92207,-8.06983 9.75266,-5.36386 27.42549,-13.72878 28.11068,-13.30531 0.94752,0.58559 4.14836,7.61442 4.14836,9.1095 0,0.57282 0.29325,1.58944 0.65169,2.2592 0.35843,0.66973 2.91346,8.16043 5.6778,16.64595 2.7644,8.48554 5.30332,15.96343 5.64213,16.61754 0.33878,0.65411 2.21764,6.01894 4.17524,11.9218 1.9576,5.90289 3.82979,11.36368 4.16041,12.13509 0.33066,0.77141 0.994,2.98046 1.47412,4.90897 0.4801,1.92855 1.25316,3.97978 1.71791,4.55836 0.81668,1.01672 2.17607,5.31489 2.93878,9.29199 0.20358,1.06071 0.64962,1.92854 0.99156,1.92854 0.34192,0 0.62627,0.55226 0.63189,1.22724 0.005,0.67499 0.49414,2.61695 1.0856,4.31547 0.97987,2.81389 0.96106,4.97655 -0.0433,4.97655 -0.21683,0 -1.41009,-1.15399 -2.65184,-2.5644 z m 432.18728,0.15002 c 0,-0.55651 0.70066,-2.21329 1.55702,-3.68175 1.78751,-3.06512 13.96447,-20.37703 15.44299,-21.95518 0.54199,-0.57857 2.37537,-3.1032 4.07415,-5.61027 2.78901,-4.11616 3.75325,-5.45436 7.32666,-10.16861 0.58477,-0.7714 3.09187,-4.24277 5.57137,-7.71413 2.4795,-3.47133 5.549,-7.70082 6.82105,-9.39882 1.27207,-1.69801 2.63356,-3.63272 3.02555,-4.29938 0.39198,-0.66666 1.81722,-2.68214 3.16717,-4.4789 1.35,-1.79674 4.04452,-5.38262 5.98789,-7.96867 1.94332,-2.58599 4.10703,-4.81232 4.80818,-4.94738 0.88836,-0.17096 4.84787,3.41274 13.06115,11.82178 6.4825,6.63698 11.93235,12.62566 12.11084,13.30815 0.24652,0.94252 -1.72015,2.65153 -8.17913,7.10768 -4.677,3.22674 -9.05231,6.18272 -9.72292,6.56886 -0.67061,0.38617 -6.6666,4.52636 -13.32438,9.20048 -14.4958,10.17673 -34.79283,23.96024 -37.91284,25.74619 -1.23399,0.70632 -3.4085,2.20531 -4.83228,3.33108 -1.42378,1.12576 -2.92278,2.04685 -3.33109,2.04685 -0.40832,0 -0.7424,0.29242 -0.7424,0.64987 0,0.35742 -0.55228,0.79418 -1.22726,0.97058 -2.44846,0.63984 -3.68172,0.46283 -3.68172,-0.52843 z m -401.40684,-0.2648 c -1.24288,-2.01104 26.03804,-37.36307 40.00167,-51.83632 1.21562,-1.25999 1.9697,-2.43957 1.6757,-2.62128 -0.29399,-0.18182 -1.3501,0.52892 -2.3469,1.5791 -0.99679,1.05022 -4.735,4.98633 -8.30713,8.74697 -5.90842,6.22025 -8.30951,8.00206 -8.30951,6.16638 0,-0.65561 13.46663,-28.80378 14.77673,-30.88661 0.36394,-0.57854 1.01632,-1.84086 1.44978,-2.80512 3.43586,-7.64347 5.41733,-10.51925 7.24803,-10.51925 1.36906,0 10.18708,7.78637 10.18619,8.99446 -6.8e-4,1.17752 -1.50148,3.1656 -6.00008,7.94922 -1.32794,1.4121 -2.41445,2.75329 -2.41445,2.98045 0,0.89407 2.17196,0.35023 2.55152,-0.63884 0.22212,-0.57857 0.72012,-1.05192 1.10691,-1.05192 0.3868,0 2.41455,-1.56404 4.50616,-3.47565 2.09159,-1.91161 4.22346,-3.31424 4.73747,-3.11701 0.51403,0.1972 4.36958,4.79811 8.5679,10.22416 4.19831,5.42602 8.82574,11.32566 10.28319,13.11027 1.4854,1.81888 2.56402,3.84951 2.45449,4.62087 -0.12086,0.85047 -1.80251,2.28149 -4.4031,3.74662 -4.33302,2.44117 -25.50887,13.44918 -61.119,31.77201 -4.95514,2.54958 -10.11384,5.2885 -11.46383,6.08647 -2.6114,1.54355 -4.59923,1.9176 -5.18174,0.97502 z m 46.19982,-58.32516 c 1.10471,-1.15308 1.79162,-2.31351 1.52643,-2.57869 -0.51295,-0.51296 -4.67522,3.14179 -4.67522,4.10515 0,1.1091 1.16466,0.5445 3.14879,-1.52646 z m -65.89946,28.21935 c 0.43836,-38.94783 1.7109,-73.62369 2.73174,-74.43681 0.44081,-0.35112 3.41353,-0.0422 7.07205,0.7351 3.47135,0.73748 7.73163,1.61342 9.46734,1.94653 15.38662,2.95322 19.10037,3.8726 19.46337,4.81849 0.41119,1.07161 -1.22116,6.82181 -3.32439,11.7106 -0.66375,1.54285 -1.7807,4.38305 -2.48211,6.31156 -0.70141,1.92855 -1.50371,3.82199 -1.78291,4.2077 -0.27918,0.38571 -0.82815,1.80579 -1.21992,3.15578 -0.39177,1.34997 -2.32153,6.3992 -4.28838,11.22053 -1.96682,4.82134 -4.24692,10.50171 -5.06686,12.6231 -2.03434,5.2633 -3.39792,8.53351 -4.16291,9.98376 -0.35329,0.66977 -0.64233,1.54104 -0.64233,1.93618 0,0.69076 -2.22894,6.05911 -3.5637,8.58308 -0.35421,0.66976 -0.64399,1.69882 -0.64399,2.28682 0,0.58798 -0.66788,2.56464 -1.48416,4.39254 -2.96514,6.63974 -3.42481,7.75276 -3.42481,8.29231 0,0.30207 -0.65208,1.99006 -1.44907,3.75109 -0.79699,1.76101 -2.05521,4.54306 -2.79602,6.18232 -0.74083,1.63924 -1.66224,2.98045 -2.0476,2.98045 -0.46122,0 -0.58264,-10.48338 -0.35534,-30.68113 z m 234.3058,28.40195 c -0.23244,-0.86783 -0.42715,-2.30919 -0.43243,-3.20302 -0.009,-1.36046 0.2473,-1.5475 1.56833,-1.14843 2.41215,0.72878 2.60742,1.18532 1.56112,3.65018 -1.13096,2.66441 -2.10315,2.91718 -2.69702,0.70127 z m 183.56157,-3.20403 c 0.54496,-1.03416 1.93844,-3.93152 3.09662,-6.43862 3.36545,-7.28515 13.47517,-28.30155 14.16851,-29.45389 0.66655,-1.10785 2.15106,-4.0998 15.48401,-31.20712 4.55312,-9.25691 8.72143,-17.43038 9.26292,-18.16319 1.08535,-1.46884 0.7556,-1.56835 8.21301,2.47883 3.7418,2.03068 7.02646,4.76884 6.97867,5.81756 -0.0186,0.41258 -1.28312,2.48582 -2.80961,4.6072 -1.52651,2.12136 -4.07709,5.75051 -5.66798,8.06475 -1.59085,2.31422 -3.25877,4.52328 -3.70645,4.90898 -0.44768,0.3857 -1.58022,1.96358 -2.51677,3.50643 -0.93654,1.54281 -4.07918,6.0189 -6.98362,9.94688 -2.90444,3.92797 -7.17427,9.87492 -9.48848,13.21546 -2.31426,3.3405 -5.47032,7.70057 -7.01349,9.68901 -1.54316,1.98846 -3.67003,4.87768 -4.72633,6.4205 -1.05631,1.54284 -2.62579,3.75187 -3.48764,4.90901 -0.86191,1.15709 -3.60807,4.84638 -6.10261,8.19839 -2.49456,3.35203 -4.79566,5.93382 -5.11359,5.73731 -0.3179,-0.19641 -0.13226,-1.20335 0.41283,-2.23749 z m -10.41754,-2.40623 c -0.27918,-1.25356 -0.7737,-4.64601 -1.09895,-7.53878 -0.3252,-2.89281 -0.93277,-8.25762 -1.35006,-11.92183 -0.4173,-3.66421 -1.06119,-10.13354 -1.43083,-14.37631 -0.36966,-4.24277 -0.95114,-10.08094 -1.29218,-12.97374 -0.34108,-2.8928 -1.14983,-10.46666 -1.79724,-16.8308 -0.64744,-6.36412 -1.47852,-13.32584 -1.84679,-15.47045 -0.36831,-2.14458 -0.68341,-5.30037 -0.7002,-7.0128 -0.0159,-1.7125 -0.28591,-4.43245 -0.59804,-6.04437 -0.31212,-1.61194 -0.34668,-3.28813 -0.0769,-3.72483 0.76516,-1.2381 15.05124,-1.73838 21.82637,-0.76433 14.17903,2.03852 15.72198,2.83345 15.08021,7.76954 -0.71077,5.46681 -1.21274,8.02133 -1.86057,9.46838 -0.50936,1.13772 -4.99878,19.14862 -6.55514,26.29811 -0.20993,0.96425 -1.00036,3.96225 -1.75655,6.66219 -0.7562,2.69995 -2.68575,9.95821 -4.28786,16.12952 -1.60209,6.17128 -3.52721,13.58737 -4.27796,16.48016 -2.31116,8.90506 -5.4182,16.1295 -6.93692,16.1295 -0.29313,0 -0.76137,-1.02561 -1.04053,-2.27916 z m -9.04548,-7.77204 c -1.78496,-3.02111 -3.24536,-5.9216 -3.24536,-6.44549 0,-0.52394 -0.33219,-1.15791 -0.7382,-1.40883 -1.2216,-0.75498 -21.2355,-41.89635 -26.93982,-55.37856 -1.46873,-3.47136 -3.27374,-7.62693 -4.01115,-9.23461 -0.73739,-1.60771 -1.5192,-4.02286 -1.73728,-5.36707 -0.48559,-2.99217 0.0132,-3.31675 8.20602,-5.33078 3.26431,-0.80257 9.40647,-2.39971 13.64924,-3.54926 4.24278,-1.14953 8.58198,-2.09572 9.64265,-2.10262 1.71102,-0.0108 1.92843,0.24466 1.92764,2.26667 -5.1e-4,1.25353 0.302,4.8038 0.67222,7.88943 0.37021,3.08565 1.33173,12.55298 2.13673,21.03848 0.80496,8.48554 1.76479,16.77398 2.13289,18.41876 0.36813,1.64479 0.66892,4.48497 0.66841,6.31155 -7e-4,3.60792 1.07664,13.15376 2.11658,18.74928 0.35841,1.92852 0.85977,7.92449 1.1141,13.32437 l 0.46242,9.81798 -1.40588,-1.75322 c -0.77324,-0.96426 -2.86628,-4.225 -4.65121,-7.24608 z m -389.65545,5.31754 c 0.28048,-1.4464 1.00179,-3.89211 1.6029,-5.43494 0.60112,-1.54282 1.9395,-5.01419 2.97421,-7.71411 1.03471,-2.69994 2.30099,-5.85571 2.81398,-7.01285 0.513,-1.1571 1.43947,-3.64952 2.05881,-5.53869 0.61938,-1.88918 1.90297,-5.13319 2.85244,-7.20893 0.94947,-2.07576 1.72541,-4.15919 1.72434,-4.62993 -10e-4,-0.47069 0.62532,-2.11811 1.39196,-3.66095 1.50233,-3.02338 5.66299,-13.48909 9.61837,-24.19426 2.65733,-7.1918 3.51353,-9.34348 5.44168,-13.67501 0.68682,-1.54284 1.51897,-3.5152 1.8493,-4.38302 0.33032,-0.86785 1.10243,-1.57789 1.7158,-1.57789 1.81199,0 11.54258,4.74549 11.54258,5.62916 0,2.04986 -17.46252,38.01268 -24.33823,50.12285 -7.91761,13.94518 -20.02219,31.90837 -21.50165,31.90837 -0.14102,0 -0.0271,-1.18339 0.25364,-2.6298 z m 358.35875,0.79383 c -10.584,-2.02629 -20.20227,-5.48819 -30.15518,-10.8538 -3.17472,-1.71149 -12.78169,-6.24486 -13.23391,-6.24486 -0.29112,0 -2.16466,-0.78894 -4.16349,-1.75321 -1.99881,-0.96425 -3.78664,-1.75319 -3.97293,-1.75319 -0.18633,0 -2.69785,-1.10453 -5.58127,-2.45453 -2.88342,-1.34994 -5.58653,-2.45447 -6.00689,-2.45447 -0.42039,0 -1.58057,-0.75686 -2.57817,-1.6819 l -1.81385,-1.68188 3.95035,-5.85691 c 2.17272,-3.22131 5.55103,-8.06595 7.50739,-10.76587 1.95636,-2.69996 4.29945,-6.0135 5.20689,-7.3635 0.90741,-1.34995 2.40275,-3.3649 3.32296,-4.47768 1.5095,-1.82532 1.83546,-1.9363 3.33319,-1.13474 4.91572,2.6308 58.21058,56.65885 58.21058,59.01138 0,0.98064 -7.62941,0.68972 -14.02567,-0.53484 z m 16.21775,-3.64584 c -45.59329,-44.09213 -58.29476,-56.77764 -58.29476,-58.22135 0,-0.69872 3.62496,-3.92014 8.81998,-7.83807 12.83498,-9.67984 15.52728,-11.43609 16.78912,-10.95186 0.61166,0.23458 2.15709,2.71832 3.43429,5.51914 1.27723,2.80084 4.06097,8.72158 6.18605,13.15719 2.12512,4.43561 4.74917,10.11601 5.83126,12.62309 1.08212,2.50708 2.32576,5.0317 2.76367,5.61029 0.43793,0.57855 1.85544,3.41875 3.15008,6.31154 1.29458,2.89279 5.45597,12.00247 9.24745,20.24372 3.79148,8.24127 6.89359,15.45696 6.89359,16.03485 0,0.90004 -0.25815,0.88156 -1.80009,-0.12881 -0.99004,-0.64871 -2.34936,-1.71064 -3.02064,-2.35985 z m -50.9332,-0.45139 c -7.71303,-0.94905 -17.02172,-2.07913 -20.68593,-2.51139 -3.66421,-0.43226 -7.98535,-1.07584 -9.60254,-1.43028 -1.61723,-0.3544 -3.89405,-0.64436 -5.05964,-0.64436 -3.04995,0 -3.88323,-1.91504 -2.50365,-5.75362 0.59547,-1.65681 1.58274,-4.43252 2.19395,-6.16818 0.6112,-1.73569 1.46862,-3.38762 1.90535,-3.67102 1.04261,-0.67647 3.94912,-0.68439 3.95248,-0.0108 9.9e-4,0.28927 1.50043,1.11677 3.33109,1.83888 1.83067,0.72206 5.53752,2.35835 8.23743,3.6361 11.23811,5.31847 18.82869,8.72599 19.43818,8.72599 0.35711,0 2.11045,0.86783 3.89632,1.92852 1.78587,1.06069 4.50993,2.43716 6.05346,3.05878 1.54354,0.62164 2.92615,1.48948 3.07252,1.92853 0.14631,0.43905 0.16009,0.79827 0.0304,0.79827 -0.1296,0 -6.54637,-0.77647 -14.25941,-1.72552 z m -71.67092,-0.51589 c -3.27524,-3.1745 -3.02293,-4.07014 1.1466,-4.07014 3.89786,0 4.84073,1.1732 3.5889,4.46573 -0.91726,2.41253 -1.92511,2.3283 -4.7355,-0.39559 z m -56.04893,-4.82596 c -1.29668,-0.80138 -2.59622,-1.82701 -2.8879,-2.27915 -0.29166,-0.45212 -2.12806,-2.24219 -4.08088,-3.97786 -4.57529,-4.06662 -15.68938,-14.06513 -17.14951,-15.42823 -0.61977,-0.57858 -3.46988,-3.1032 -6.33361,-5.61028 -2.86373,-2.50708 -7.26221,-6.4877 -9.7744,-8.8458 -5.30377,-4.97847 -6.72015,-6.26692 -12.63237,-11.49141 -5.0644,-4.47525 -6.8922,-6.11794 -11.22056,-10.08422 -1.73566,-1.59047 -4.41806,-3.96096 -5.96089,-5.26772 -1.54284,-1.3068 -5.03167,-4.46206 -7.75297,-7.01172 -5.742,-5.37984 -16.64153,-15.2962 -21.70093,-19.74345 -3.59934,-3.16385 -11.68296,-10.54114 -17.05161,-15.56171 -4.00302,-3.74347 -5.3967,-5.90958 -4.52178,-7.02808 0.37562,-0.4802 0.85521,-1.50424 1.06575,-2.27566 0.21044,-0.77141 1.38141,-4.08497 2.60201,-7.36348 1.22056,-3.27848 2.70612,-7.38102 3.30121,-9.11668 0.59512,-1.73566 1.33239,-3.47135 1.63842,-3.85706 0.30602,-0.3857 0.91416,-2.03931 1.35138,-3.67468 0.56988,-2.13149 1.23464,-3.07939 2.34775,-3.34779 0.85402,-0.20595 49.67832,-0.28797 108.49846,-0.18235 l 106.94572,0.1919 -0.21258,1.99623 c -0.22529,2.11731 -1.86838,5.78326 -14.34906,32.016 -1.9268,4.04991 -4.91535,10.36147 -6.64115,14.02568 -1.72583,3.66422 -5.43764,11.39587 -8.24847,17.18145 -7.95895,16.38198 -17.87865,37.06091 -26.74431,55.75202 -6.25666,13.19072 -5.9376,12.63048 -8.02623,14.09312 -1.47652,1.03398 -2.52541,1.10484 -8.01051,0.5411 -9.35515,-0.96153 -9.17554,-0.88501 -10.04672,-4.28009 -2.30526,-8.98386 -2.74316,-14.06151 -1.45625,-16.88599 0.79306,-1.74054 4.64063,-3.98741 6.82817,-3.98741 2.90399,0 3.84978,-4.13507 1.97315,-8.62653 -0.85261,-2.04065 -1.47252,-2.40604 -6.13622,-3.61716 -9.27932,-2.40978 -12.65752,-1.69321 -23.10249,4.90041 -2.70894,1.71005 -2.77316,1.84461 -2.77316,5.80925 0,2.23226 0.37869,4.43734 0.84155,4.9002 0.48679,0.48679 2.81903,0.84154 5.53256,0.84154 6.8161,0 7.45227,0.70665 9.14842,10.16233 0.75638,4.2166 1.28127,8.75687 1.16644,10.08952 -0.19641,2.27772 -0.56613,2.60429 -6.16971,5.44817 -3.27852,1.66386 -6.39704,3.03137 -6.93009,3.03888 -0.53302,0.009 -2.03006,-0.64196 -3.32673,-1.44338 z m 72.37772,-2.47498 c -0.61008,-0.23404 -1.10927,-0.94884 -1.10927,-1.58825 0,-1.24316 4.54301,-14.85334 5.60921,-16.80439 0.35114,-0.64255 1.27285,-2.6822 2.0482,-4.53257 2.92518,-6.98064 15.41844,-26.32798 18.11478,-28.05298 0.48213,-0.30845 0.87661,-0.89431 0.87661,-1.30193 0,-1.18073 15.26239,-15.82954 21.0385,-20.19264 8.28795,-6.26053 18.05833,-12.17408 19.3164,-11.6913 0.73266,0.28115 1.03855,1.09014 0.89246,2.36027 -0.17892,1.5553 -1.958,3.23971 -9.11405,8.62909 -24.54726,18.48712 -34.37096,29.50052 -44.44732,49.83014 -2.8658,5.78189 -6.96033,15.72126 -7.62552,18.5106 -0.48719,2.04309 -2.91445,5.25962 -3.96902,5.25962 -0.28691,0 -1.02086,-0.19162 -1.63098,-0.42566 z m -16.63671,-2.09014 c -1.49172,-0.92193 -0.30755,-4.0768 7.74033,-20.6216 1.96868,-4.04721 3.57942,-7.75527 3.57942,-8.24011 0,-0.48483 0.31556,-0.8815 0.70128,-0.8815 0.38572,0 0.7013,-0.28997 0.7013,-0.64435 0,-0.77388 3.90033,-9.09955 14.11538,-30.13059 4.19341,-8.63355 7.6244,-15.80203 7.6244,-15.92999 0,-0.12801 2.38101,-5.21388 5.29115,-11.30205 2.91014,-6.0882 7.09154,-14.84299 9.29202,-19.45514 7.10692,-14.89599 10.99774,-22.30239 11.71493,-22.30017 0.38574,9.9e-4 1.95055,2.48794 3.47744,5.52606 4.87372,9.69764 15.10657,31.99362 15.10657,32.91516 0,0.85906 -5.35089,5.21839 -6.40537,5.21839 -0.28533,0 -2.66889,1.46431 -5.29677,3.25399 -21.8696,14.89396 -38.60106,33.94331 -49.80592,56.70572 -3.46338,7.0358 -9.32153,21.47635 -9.32153,22.9779 0,0.23297 -0.32365,1.27507 -0.71924,2.31553 -0.67516,1.77581 -0.91505,1.86488 -3.91521,1.45366 -1.7578,-0.24093 -3.50386,-0.62833 -3.88018,-0.86091 z m 160.63865,-10.77092 c 0.42926,-1.37066 1.22886,-4.70855 1.77692,-7.41746 0.5481,-2.70893 1.35856,-5.86472 1.80107,-7.01285 0.44253,-1.14811 1.07368,-3.50758 1.40259,-5.24328 0.32893,-1.73568 2.06609,-8.83617 3.86035,-15.77887 1.79428,-6.94271 3.52721,-13.72762 3.85099,-15.07759 1.42421,-5.93827 3.95213,-14.71949 4.35269,-15.12007 0.45928,-0.45926 6.51236,1.0993 11.58715,2.9835 2.08405,0.77378 2.98045,1.51062 2.98045,2.44997 0,1.21395 -7.1044,16.02984 -25.48893,53.15601 -4.74137,9.57488 -6.48275,12.51779 -6.6616,11.25823 -0.13333,-0.93799 0.10927,-2.82691 0.53832,-4.19759 z m 30.09098,-74.76816 c -6.91797,-1.70743 -19.51726,-5.97021 -19.51726,-6.60336 0,-0.99314 10.67073,-1.52959 14.71612,-0.73981 5.27912,1.03066 12.4515,3.51709 13.38296,4.63942 0.42318,0.50989 0.56428,1.57336 0.31356,2.36329 -0.56298,1.77379 -2.74902,1.85747 -8.89538,0.34046 z m -96.3078,-0.96879 c 0,-3.60855 8.49067,-6.2915 19.98657,-6.31549 9.84325,-0.0212 9.97572,0.7778 0.61591,3.7116 -4.38865,1.37559 -9.34516,2.80293 -11.01444,3.17186 -1.66928,0.36892 -3.23571,0.87141 -3.481,1.11665 -0.24516,0.24519 -1.71965,0.35219 -3.27646,0.23749 -2.47763,-0.18234 -2.83058,-0.42201 -2.83058,-1.92219 z m 104.28085,-12.10137 c -0.46286,-0.46284 -0.84154,-1.68663 -0.84154,-2.71952 0,-2.51218 1.90674,-6.9558 2.98987,-6.96778 0.47692,-0.005 1.53019,-0.18767 2.34052,-0.40509 0.87234,-0.2343 1.92987,0.061 2.59244,0.72357 0.99029,0.99032 1.00795,1.48847 0.15319,4.32848 -0.53124,1.76514 -1.51005,3.81069 -2.17517,4.54561 -1.36844,1.51214 -3.80381,1.75027 -5.05934,0.49473 z m -107.29635,0 c -2.71543,-2.71543 1.85636,-10.02403 5.97448,-9.55107 2.3499,0.26991 2.75334,1.8919 1.4537,5.8443 -1.23331,3.75075 -5.33661,5.79834 -7.42818,3.70677 z m 121.50427,-1.30783 c -0.76043,-1.23038 0.29689,-5.21239 1.81739,-6.84446 0.99028,-1.06296 2.25078,-1.52541 4.15758,-1.52541 3.38452,0 3.78812,0.60935 2.8098,4.24249 -0.59438,2.20746 -1.29153,3.09764 -3.01182,3.8458 -2.70534,1.17654 -5.14625,1.29559 -5.77295,0.28158 z m -28.54916,-1.84606 c -0.67387,-0.37803 -0.66593,-4.5185 0.0108,-5.5754 0.51117,-0.79853 2.56706,-1.17524 5.59952,-1.02606 2.02718,0.0996 2.09892,2.37028 0.17468,5.52642 -1.19905,1.9666 -1.67284,2.2273 -3.32848,1.83156 -1.06171,-0.25392 -2.16709,-0.59422 -2.45637,-0.75652 z m -77.50398,-1.31912 c -0.31026,-2.23005 2.38325,-5.90601 4.32748,-5.90601 2.72367,0 3.92473,0.73672 3.92473,2.40729 0,3.77159 -7.75676,7.06023 -8.25221,3.49872 z m 64.30881,-1.72295 c -1.93895,-1.0377 -1.73474,-3.36009 0.34126,-3.88113 2.69327,-0.67599 4.24282,-0.0803 4.49986,1.72979 0.36279,2.55483 -2.06844,3.63523 -4.84112,2.15134 z M 620.56626,211.429 c -2.01394,-1.27563 1.87425,-3.84726 4.69971,-3.10837 1.74938,0.45748 1.26421,2.20055 -0.85033,3.05494 -1.93867,0.78333 -2.6807,0.79365 -3.84938,0.0535 z M 329.44821,119.12814 c -1.34996,-0.25074 -3.79226,-1.05991 -5.4273,-1.79848 -1.63502,-0.73859 -3.4539,-1.34286 -4.04188,-1.34286 -0.588,0 -1.61705,-0.28127 -2.28682,-0.62507 -0.66976,-0.34378 -3.03644,-1.15016 -5.25932,-1.79194 -4.2515,-1.22749 -6.52778,-3.43678 -5.71725,-5.54893 0.24279,-0.63292 0.5592,-1.15077 0.70296,-1.15077 0.14366,0 1.89026,1.23284 3.88107,2.73964 1.99083,1.50683 4.28517,3.03749 5.09852,3.40155 4.58891,2.05395 14.76598,5.03013 17.29902,5.05895 0.98697,0.0108 2.40707,0.50668 3.15576,1.10101 1.26786,1.00645 1.14468,1.05769 -1.79447,0.74658 -1.7357,-0.18369 -4.26031,-0.53906 -5.61029,-0.78968 z m -5.69956,-15.57323 c -2.28907,-2.28909 10.49007,-1.94119 15.85418,0.43164 3.27361,1.44805 4.71442,3.33149 3.24382,4.24035 -1.00715,0.62247 -17.94779,-3.52177 -19.098,-4.67199 z m 29.30997,2.67986 c -4.07166,-2.28691 -4.9266,-2.72513 -8.43381,-4.32291 -1.87412,-0.85379 -5.66105,-2.28237 -8.41541,-3.17464 l -5.00797,-1.622325 3.99814,-0.03121 c 2.19903,-0.01593 5.76181,0.428007 7.91737,0.989445 4.16753,1.08552 14.77955,6.99247 15.38182,8.56197 0.54018,1.40774 -2.6375,1.174 -5.44014,-0.40016 z"
       style="fill:#ffffff;fill-opacity:1;stroke:none;stroke-width:0.701284;stroke-opacity:1"
       inkscape:connector-curvature="0" />
  </g>
  <g
     inkscape:groupmode="layer"
     id="layer3"
     inkscape:label="Mot" />
</svg>
